<svg xmlns="http://www.w3.org/2000/svg" width="20" height="18.6" viewBox="0 0 200 185" style="shape-rendering: geometricprecision; text-rendering: geometricprecision; fill-rule: evenodd; clip-rule: evenodd;"><path fill="#3aa1f9" d="M120.5 36.5c5.149 60.646 31.483 109.646 79 147v1h-27c-33.643-2.937-64.31-14.104-92-33.5-21.3-15.009-40.634-32.342-58-52a111.407 111.407 0 0 0-23-16.5v-2c23.813-44.427 60.813-70.76 111-79a41.743 41.743 0 0 0 9-1c-.328 12.178.005 24.178 1 36Z" style="opacity: 0.999;"></path><path fill="#66b6fa" d="M115.5-.5h5v37c-.995-11.822-1.328-23.822-1-36a41.743 41.743 0 0 1-9 1l5-2Z" style="opacity: 0.604;"></path></svg>