<svg xmlns="http://www.w3.org/2000/svg" width="20" height="18.6" viewBox="0 0 200 185" style="shape-rendering: geometricprecision; text-rendering: geometricprecision; fill-rule: evenodd; clip-rule: evenodd;"><path fill="#e6e6ea" d="M78.5-.5h2c2.28 1.723 4.947 2.39 8 2 49.886 8.074 86.886 34.074 111 78v4a56.152 56.152 0 0 0-17 10.5c-22.966 25.311-48.633 47.311-77 66-24.41 13.527-50.41 21.694-78 24.5h-28v-1c43.217-33.059 69.05-76.726 77.5-131a542.897 542.897 0 0 0 1.5-53Z" style="opacity: 0.997;"/><path fill="#eeeef1" d="M80.5-.5h3l5 2c-3.053.39-5.72-.277-8-2Z" style="opacity: 0.658;"/></svg>